<?xml version="1.0" encoding="utf-8"?>
<!-- Svg Vector Icons : http://www.onlinewebfonts.com/icon -->
<!DOCTYPE svg PUBLIC "-//W3C//DTD SVG 1.1//EN" "http://www.w3.org/Graphics/SVG/1.1/DTD/svg11.dtd">
<svg version="1.1" xmlns="http://www.w3.org/2000/svg" xmlns:xlink="http://www.w3.org/1999/xlink" x="0px" y="0px" viewBox="0 0 1000 1000" enable-background="new 0 0 1000 1000" xml:space="preserve">
<metadata> Svg Vector Icons : http://www.onlinewebfonts.com/icon </metadata>
<g><path d="M394.4,942.1l47-160.1c4.9-16.9,14.6-32.2,28.2-44.3l120.5-119.4c-9.6-3.6-19.2-7-28.8-10.1c-6-2-44.2-19.2-20.3-91.6h-0.4c62.1-63.9,109.6-166.9,109.6-268.2c0-155.8-103.7-237.5-224.1-237.5c-120.5,0-223.5,81.7-223.5,237.5c0,101.7,47.2,205.1,109.7,268.9c24.3,63.9-19.2,87.6-28.3,90.9C158,653.8,10,737,10,819c0,22.2,0,8.7,0,30.7c0,105.4,192.6,134,382.8,136.9C390.1,972.1,390.1,956.9,394.4,942.1z"/><path d="M831.6,657.3l-0.2,0.2l-36.8-36.9l0.2-0.2l-49.3-49.3L521.2,793.5c-3.1,2.5-5.7,5.6-6.9,9.7l-47,160.3c-2.1,7-0.1,14.6,5,19.7c3.8,3.8,8.9,5.9,14.1,5.9c1.9,0,3.7-0.3,5.6-0.8l160.4-47.1c3.8-1.1,6.8-3.5,9.1-6.3L886.3,712L831.6,657.3z M612.6,842.1l2.9,51.6l13,12.9l-86.2,25.3l-18.8-18.8l25.3-86.2l10.8,10.8L612.6,842.1z"/><path d="M765.8,548.8l140.8,140.8l32.2-30.2L798.1,518.6L765.8,548.8z"/><path d="M976,546.8l-67.5-67.5c-18.6-18.6-48.6-18.8-67.1-0.4l-20.7,20.9l135,135l20.7-21C994.7,595.5,994.6,565.4,976,546.8z"/></g>
</svg>